# xmcd CD database file
#
# Track frame offsets:
#	150
#	24801
#	47437
#	68843
#	92143
#	117709
#	137013
#	164923
#	179124
#	205017
#	222521
#	235611
#	250674
#	266510
#	286739
#
# Disc length: 4044 seconds
#
# Revision: 0
# Processed by: cddbd v1.5.2PL0 Copyright (c) Steve Scherf et al.
# Submitted via: CDex 1.51
#
DISCID=db0fca0f
DTITLE=Errol Garner - The Most Happy Piano
DYEAR=1900
DGENRE=Jazz
TTITLE0=Moonglow
TTITLE1=All God's Chillun Go Rhythm
TTITLE2=Creme De Menthe
TTITLE3=Humoresque
TTITLE4=My Lonely Heart
TTITLE5=Mambo 207
TTITLE6=The Way Back Blues
TTITLE7=Passin Through
TTITLE8=Once In A While
TTITLE9=Dancing Tambourine
TTITLE10=Sophisticated Lady
TTITLE11=Robin's Nest
TTITLE12=How High The Moon
TTITLE13=Fancy
TTITLE14=Groovy-Day
EXTD=
EXTT0=
EXTT1=
EXTT2=
EXTT3=
EXTT4=
EXTT5=
EXTT6=
EXTT7=
EXTT8=
EXTT9=
EXTT10=
EXTT11=
EXTT12=
EXTT13=
EXTT14=
PLAYORDER=
